<?xml version="1.0" encoding="UTF-8" standalone="no"?>
<!-- Created with Inkscape (http://www.inkscape.org/) -->

<svg
   xmlns:dc="http://purl.org/dc/elements/1.1/"
   xmlns:cc="http://creativecommons.org/ns#"
   xmlns:rdf="http://www.w3.org/1999/02/22-rdf-syntax-ns#"
   xmlns:svg="http://www.w3.org/2000/svg"
   xmlns="http://www.w3.org/2000/svg"
   xmlns:sodipodi="http://sodipodi.sourceforge.net/DTD/sodipodi-0.dtd"
   xmlns:inkscape="http://www.inkscape.org/namespaces/inkscape"
   width="622.85724"
   height="207.14333"
   id="svg2"
   version="1.1"
   inkscape:version="0.48.0 r9654"
   sodipodi:docname="logo.svg"
   inkscape:export-filename="/home/andrea/checkout/jslisp/jslisp.png"
   inkscape:export-xdpi="90"
   inkscape:export-ydpi="90">
  <defs
     id="defs4" />
  <sodipodi:namedview
     id="base"
     pagecolor="#ffffff"
     bordercolor="#666666"
     borderopacity="1.0"
     inkscape:pageopacity="0.0"
     inkscape:pageshadow="2"
     inkscape:zoom="0.7"
     inkscape:cx="20.569765"
     inkscape:cy="-98.064917"
     inkscape:document-units="px"
     inkscape:current-layer="layer1"
     showgrid="false"
     fit-margin-top="0"
     fit-margin-left="0"
     fit-margin-right="0"
     fit-margin-bottom="0"
     inkscape:window-width="1920"
     inkscape:window-height="1128"
     inkscape:window-x="0"
     inkscape:window-y="24"
     inkscape:window-maximized="1" />
  <metadata
     id="metadata7">
    <rdf:RDF>
      <cc:Work
         rdf:about="">
        <dc:format>image/svg+xml</dc:format>
        <dc:type
           rdf:resource="http://purl.org/dc/dcmitype/StillImage" />
        <dc:title />
      </cc:Work>
    </rdf:RDF>
  </metadata>
  <g
     inkscape:label="Layer 1"
     inkscape:groupmode="layer"
     id="layer1"
     transform="translate(-103.36188,-18.168442)">
    <rect
       style="fill:#ffffff;stroke:none"
       id="rect3001"
       width="622.85724"
       height="207.14333"
       x="4.2857132"
       y="5.8982348"
       transform="translate(99.07617,12.270207)" />
    <g
       id="g3901"
       transform="translate(32.704069,-481.27074)">
      <g
         id="g3886">
        <g
           style="font-size:140px;font-style:normal;font-variant:normal;font-weight:normal;font-stretch:normal;text-align:start;line-height:125%;letter-spacing:0px;word-spacing:0px;writing-mode:lr-tb;text-anchor:start;fill:#000000;fill-opacity:1;stroke:none;font-family:DejaVu Sans;-inkscape-font-specification:DejaVu Sans"
           id="flowRoot2985"
           transform="matrix(0,1.2421038,-1.2421038,0,681.03448,408.07697)">
          <path
             d="m 123.4082,337.09566 c -6.10681,10.48187 -10.64131,20.8497 -13.60351,31.10352 -2.96227,10.25397 -4.44339,20.64459 -4.44336,31.17187 -3e-5,10.52738 1.48109,20.96357 4.44336,31.3086 3.00778,10.29948 7.54228,20.66731 13.60351,31.10351 l -10.9375,0 c -6.83596,-10.70964 -11.96291,-21.23697 -15.380856,-31.58203 -3.37241,-10.34503 -5.058606,-20.62171 -5.058594,-30.83008 -1.2e-5,-10.1627 1.686184,-20.39381 5.058594,-30.69335 3.372376,-10.2994 8.499326,-20.82673 15.380856,-31.58204 l 10.9375,0"
             id="path3874"
             inkscape:connector-curvature="0" />
          <path
             d="m 190.46875,337.09566 10.9375,0 c 6.83591,10.75531 11.94007,21.28264 15.3125,31.58204 3.41793,10.29954 5.12691,20.53065 5.12695,30.69335 -4e-5,10.20837 -1.70902,20.48505 -5.12695,30.83008 -3.37243,10.34506 -8.47659,20.87239 -15.3125,31.58203 l -10.9375,0 c 6.06118,-10.4362 10.57289,-20.80403 13.53516,-31.10351 3.00778,-10.34503 4.51169,-20.78122 4.51171,-31.3086 -2e-5,-10.52728 -1.50393,-20.9179 -4.51171,-31.17187 -2.96227,-10.25382 -7.47398,-20.62165 -13.53516,-31.10352"
             id="path3876"
             inkscape:connector-curvature="0" />
        </g>
        <g
           id="g3862"
           style="stroke-width:12;stroke-miterlimit:4;stroke-dasharray:none"
           transform="matrix(0.38275085,0,0,0.38275085,84.553871,342.32949)">
          <g
             transform="translate(1.4285596,0)"
             id="g3799"
             style="stroke-width:12;stroke-miterlimit:4;stroke-dasharray:none">
            <path
               sodipodi:type="arc"
               style="fill:none;stroke:#000080;stroke-width:12;stroke-linecap:butt;stroke-miterlimit:4;stroke-opacity:1;stroke-dasharray:none"
               id="path2993"
               sodipodi:cx="260.71429"
               sodipodi:cy="680.2193"
               sodipodi:rx="120.71429"
               sodipodi:ry="120.71429"
               d="m 381.42858,680.2193 c 0,66.66866 -54.04563,120.71429 -120.71429,120.71429 -66.66866,0 -120.71428,-54.04563 -120.71428,-120.71429 0,-66.66866 54.04562,-120.71429 120.71428,-120.71429 66.66866,0 120.71429,54.04563 120.71429,120.71429 z"
               transform="translate(0,0.85393476)" />
            <path
               transform="matrix(0.73101726,0,0,1,70.127645,0.85393476)"
               sodipodi:type="arc"
               style="fill:none;stroke:#000080;stroke-width:14.03516197;stroke-linecap:butt;stroke-miterlimit:4;stroke-opacity:1;stroke-dasharray:none"
               id="path2993-6"
               sodipodi:cx="260.71429"
               sodipodi:cy="680.2193"
               sodipodi:rx="120.71429"
               sodipodi:ry="120.71429"
               d="m 381.42858,680.2193 c 0,66.66866 -54.04563,120.71429 -120.71429,120.71429 -66.66866,0 -120.71428,-54.04563 -120.71428,-120.71429 0,-66.66866 54.04562,-120.71429 120.71428,-120.71429 66.66866,0 120.71429,54.04563 120.71429,120.71429 z" />
            <path
               transform="matrix(0.3232813,0,0,1,176.43024,0.85393476)"
               sodipodi:type="arc"
               style="fill:none;stroke:#000080;stroke-width:21.10527229;stroke-linecap:butt;stroke-miterlimit:4;stroke-opacity:1;stroke-dasharray:none"
               id="path2993-6-0"
               sodipodi:cx="260.71429"
               sodipodi:cy="680.2193"
               sodipodi:rx="120.71429"
               sodipodi:ry="120.71429"
               d="m 381.42858,680.2193 c 0,66.66866 -54.04563,120.71429 -120.71429,120.71429 -66.66866,0 -120.71428,-54.04563 -120.71428,-120.71429 0,-66.66866 54.04562,-120.71429 120.71428,-120.71429 66.66866,0 120.71429,54.04563 120.71429,120.71429 z" />
          </g>
          <g
             transform="translate(0,-2.4496609)"
             id="g3856"
             style="stroke-width:12;stroke-miterlimit:4;stroke-dasharray:none">
            <path
               style="fill:none;stroke:#000080;stroke-width:12;stroke-linecap:butt;stroke-linejoin:miter;stroke-miterlimit:4;stroke-opacity:1;stroke-dasharray:none"
               d="m 146.89647,655.10029 234.07864,0"
               id="path3804"
               inkscape:connector-curvature="0" />
            <path
               style="fill:none;stroke:#000080;stroke-width:12;stroke-linecap:butt;stroke-linejoin:miter;stroke-miterlimit:4;stroke-opacity:1;stroke-dasharray:none"
               d="m 179.35965,598.25504 165.70865,0"
               id="path3804-3"
               inkscape:connector-curvature="0" />
            <path
               style="fill:none;stroke:#000080;stroke-width:12;stroke-linecap:butt;stroke-linejoin:miter;stroke-miterlimit:4;stroke-opacity:1;stroke-dasharray:none"
               d="m 148.30828,711.9455 229.84764,0"
               id="path3804-7"
               inkscape:connector-curvature="0" />
            <path
               style="fill:none;stroke:#000080;stroke-width:12;stroke-linecap:butt;stroke-linejoin:miter;stroke-miterlimit:4;stroke-opacity:1;stroke-dasharray:none"
               d="m 174.42671,768.79075 174.86717,0"
               id="path3804-2"
               inkscape:connector-curvature="0" />
          </g>
        </g>
      </g>
      <flowRoot
         transform="matrix(1.654603,0,0,1.654603,-153.33643,-357.31113)"
         style="font-size:72px;font-style:normal;font-variant:normal;font-weight:normal;font-stretch:normal;text-align:start;line-height:125%;letter-spacing:0px;word-spacing:0px;writing-mode:lr-tb;text-anchor:start;fill:#000000;fill-opacity:1;stroke:none;font-family:Symbol;-inkscape-font-specification:Symbol"
         id="flowRoot3878"
         xml:space="preserve"><flowRegion
           id="flowRegion3880"><rect
             y="528.79077"
             x="291.42856"
             height="159.28572"
             width="383.57144"
             id="rect3882" /></flowRegion><flowPara
           id="flowPara3884">JsLisp</flowPara></flowRoot>    </g>
  </g>
</svg>
